<svg xmlns="http://www.w3.org/2000/svg" xmlns:xlink="http://www.w3.org/1999/xlink" width="40" zoomAndPan="magnify" viewBox="0 0 30 30.000001" height="40" preserveAspectRatio="xMidYMid meet" version="1.0"><defs><clipPath id="8b2cf07691"><path d="M 11 11 L 26 11 L 26 28.667969 L 11 28.667969 Z M 11 11 " clip-rule="nonzero"/></clipPath><clipPath id="5a8a4bb58c"><path d="M 14 18 L 17 18 L 17 28.667969 L 14 28.667969 Z M 14 18 " clip-rule="nonzero"/></clipPath><clipPath id="79a2b38786"><path d="M 12 27 L 26 27 L 26 28.667969 L 12 28.667969 Z M 12 27 " clip-rule="nonzero"/></clipPath><clipPath id="ccd5713609"><path d="M 17 22 L 19 22 L 19 28.667969 L 17 28.667969 Z M 17 22 " clip-rule="nonzero"/></clipPath><clipPath id="40725f4161"><path d="M 16 24 L 18 24 L 18 28.667969 L 16 28.667969 Z M 16 24 " clip-rule="nonzero"/></clipPath><clipPath id="adb36248f4"><path d="M 19 23 L 22 23 L 22 28.667969 L 19 28.667969 Z M 19 23 " clip-rule="nonzero"/></clipPath><clipPath id="7a26126641"><path d="M 21 23 L 25 23 L 25 28.667969 L 21 28.667969 Z M 21 23 " clip-rule="nonzero"/></clipPath><clipPath id="7ca017765a"><path d="M 24 22 L 28 22 L 28 28.667969 L 24 28.667969 Z M 24 22 " clip-rule="nonzero"/></clipPath><clipPath id="d1c7c6d200"><path d="M 0.847656 0.363281 L 10 0.363281 L 10 11 L 0.847656 11 Z M 0.847656 0.363281 " clip-rule="nonzero"/></clipPath></defs><g clip-path="url(#8b2cf07691)"><path fill="#5170ff" d="M 24.679688 28.117188 C 24.519531 28.226562 24.324219 28.179688 24.230469 28.035156 C 24.132812 27.890625 24.164062 27.699219 24.308594 27.601562 C 24.648438 27.363281 24.839844 26.769531 24.917969 26.046875 C 25 25.179688 24.886719 24.1875 24.628906 23.402344 C 24.421875 22.777344 23.796875 22.085938 23.15625 21.492188 C 22.480469 20.898438 21.824219 20.417969 21.566406 20.242188 C 21.40625 20.144531 21.375 19.9375 21.472656 19.792969 C 21.582031 19.648438 21.777344 19.617188 21.921875 19.710938 C 22.191406 19.90625 22.898438 20.402344 23.570312 21.027344 C 24.277344 21.667969 24.984375 22.453125 25.238281 23.207031 C 25.527344 24.074219 25.640625 25.164062 25.542969 26.09375 C 25.464844 27.007812 25.175781 27.777344 24.679688 28.117188 Z M 21.054688 18.527344 C 21.085938 18.703125 20.957031 18.863281 20.78125 18.878906 C 20.605469 18.894531 20.445312 18.765625 20.429688 18.589844 C 20.414062 18.558594 20.414062 18.527344 20.414062 18.492188 C 20.414062 18.445312 20.414062 18.414062 20.429688 18.382812 C 20.429688 18.332031 20.414062 18.203125 20.363281 18.011719 C 20.316406 17.773438 20.234375 17.433594 20.125 17.050781 C 20.09375 16.875 20.1875 16.714844 20.363281 16.664062 C 20.523438 16.617188 20.703125 16.714844 20.75 16.890625 C 20.847656 17.257812 20.941406 17.613281 20.988281 17.882812 C 21.054688 18.140625 21.070312 18.347656 21.054688 18.460938 C 21.054688 18.476562 21.054688 18.476562 21.054688 18.492188 C 21.054688 18.492188 21.054688 18.507812 21.054688 18.527344 Z M 18.550781 12.078125 C 18.730469 12.125 18.824219 12.304688 18.777344 12.480469 C 18.730469 12.640625 18.550781 12.734375 18.375 12.6875 C 16.484375 12.140625 14.6875 15.078125 14.6875 15.078125 C 14.640625 15.140625 14.574219 15.191406 14.511719 15.222656 L 12.089844 16.199219 C 12.203125 16.777344 12.792969 18.332031 15.808594 18.621094 C 15.984375 18.636719 16.113281 18.78125 16.097656 18.957031 C 16.082031 19.136719 15.921875 19.261719 15.746094 19.246094 C 11.464844 18.863281 11.429688 16.023438 11.429688 16.007812 C 11.414062 15.878906 11.496094 15.75 11.625 15.703125 L 14.191406 14.660156 C 14.542969 14.132812 16.417969 11.453125 18.550781 12.078125 Z M 18.550781 12.078125 " fill-opacity="1" fill-rule="nonzero"/></g><g clip-path="url(#5a8a4bb58c)"><path fill="#5170ff" d="M 15.457031 18.6875 C 15.457031 18.507812 15.601562 18.363281 15.777344 18.363281 C 15.953125 18.363281 16.097656 18.507812 16.097656 18.6875 L 16.097656 19.90625 C 16.097656 19.96875 16.082031 20.03125 16.035156 20.082031 C 15.953125 20.226562 15.472656 21.089844 15.503906 22.054688 C 15.554688 23.207031 15.503906 26.882812 15.503906 26.898438 C 15.503906 26.960938 15.488281 27.027344 15.457031 27.074219 L 14.816406 28.035156 C 14.71875 28.179688 14.527344 28.226562 14.367188 28.132812 C 14.222656 28.035156 14.191406 27.828125 14.285156 27.683594 L 14.878906 26.785156 C 14.878906 26.207031 14.910156 23.113281 14.878906 22.085938 C 14.832031 21.027344 15.3125 20.097656 15.457031 19.808594 Z M 15.457031 18.6875 " fill-opacity="1" fill-rule="nonzero"/></g><g clip-path="url(#79a2b38786)"><path fill="#5170ff" d="M 12.394531 28.179688 C 12.21875 28.179688 12.074219 28.035156 12.074219 27.859375 C 12.074219 27.683594 12.21875 27.539062 12.394531 27.539062 L 25.511719 27.539062 C 25.6875 27.539062 25.832031 27.683594 25.832031 27.859375 C 25.832031 28.035156 25.6875 28.179688 25.511719 28.179688 Z M 12.394531 28.179688 " fill-opacity="1" fill-rule="nonzero"/></g><path fill="#5170ff" d="M 15.792969 22.003906 C 15.824219 21.828125 16.003906 21.71875 16.164062 21.765625 C 16.339844 21.796875 16.453125 21.972656 16.417969 22.132812 C 16.417969 22.148438 15.984375 24.042969 16.949219 24.78125 C 18.023438 25.628906 18.328125 25.773438 18.328125 25.773438 C 18.488281 25.871094 18.535156 26.0625 18.457031 26.207031 C 18.375 26.367188 18.183594 26.433594 18.023438 26.351562 C 18.023438 26.351562 17.6875 26.175781 16.546875 25.292969 C 15.28125 24.300781 15.792969 22.003906 15.792969 22.003906 Z M 15.792969 22.003906 " fill-opacity="1" fill-rule="nonzero"/><g clip-path="url(#ccd5713609)"><path fill="#5170ff" d="M 17.863281 23.273438 C 17.863281 23.097656 18.007812 22.953125 18.183594 22.953125 C 18.359375 22.953125 18.503906 23.097656 18.503906 23.273438 L 18.503906 27.296875 C 18.503906 27.394531 18.457031 27.472656 18.390625 27.539062 L 17.847656 28.082031 C 17.71875 28.210938 17.511719 28.210938 17.382812 28.082031 C 17.269531 27.957031 17.269531 27.761719 17.382812 27.636719 L 17.863281 27.167969 Z M 17.863281 23.273438 " fill-opacity="1" fill-rule="nonzero"/></g><g clip-path="url(#40725f4161)"><path fill="#5170ff" d="M 16.773438 25.308594 C 16.773438 25.132812 16.917969 24.988281 17.09375 24.988281 C 17.269531 24.988281 17.414062 25.132812 17.414062 25.308594 L 17.414062 26.863281 C 17.414062 26.945312 17.398438 27.007812 17.347656 27.058594 L 16.738281 28.035156 C 16.644531 28.179688 16.433594 28.226562 16.292969 28.132812 C 16.148438 28.035156 16.097656 27.84375 16.195312 27.683594 L 16.773438 26.785156 Z M 16.773438 25.308594 " fill-opacity="1" fill-rule="nonzero"/></g><g clip-path="url(#adb36248f4)"><path fill="#5170ff" d="M 20.523438 24.027344 C 20.558594 23.851562 20.71875 23.722656 20.894531 23.753906 C 21.070312 23.769531 21.183594 23.929688 21.167969 24.105469 L 20.796875 27.058594 C 20.796875 27.105469 20.78125 27.152344 20.75 27.1875 L 20.300781 28.019531 C 20.21875 28.164062 20.027344 28.226562 19.867188 28.132812 C 19.722656 28.050781 19.660156 27.859375 19.738281 27.699219 L 20.171875 26.914062 Z M 20.523438 24.027344 " fill-opacity="1" fill-rule="nonzero"/></g><g clip-path="url(#7a26126641)"><path fill="#5170ff" d="M 23.910156 23.753906 C 24.085938 23.738281 24.230469 23.867188 24.261719 24.042969 C 24.277344 24.21875 24.148438 24.363281 23.972656 24.378906 C 22.65625 24.507812 22.386719 24.941406 22.417969 25.375 C 22.449219 25.679688 22.609375 26 22.722656 26.273438 C 22.816406 26.480469 22.898438 26.65625 22.914062 26.816406 C 22.945312 26.992188 22.816406 27.136719 22.640625 27.167969 C 22.625 27.167969 22.625 27.167969 22.609375 27.167969 C 22.609375 27.167969 21.824219 27.152344 21.984375 27.777344 C 22.03125 27.957031 21.921875 28.132812 21.761719 28.164062 C 21.582031 28.210938 21.40625 28.117188 21.375 27.941406 C 21.132812 27.007812 21.726562 26.6875 22.160156 26.578125 L 22.144531 26.527344 C 22 26.222656 21.824219 25.839844 21.792969 25.4375 C 21.710938 24.667969 22.082031 23.929688 23.910156 23.753906 Z M 23.910156 23.753906 " fill-opacity="1" fill-rule="nonzero"/></g><path fill="#5170ff" d="M 20.574219 18.832031 C 20.429688 18.734375 20.378906 18.542969 20.460938 18.398438 C 20.558594 18.238281 20.75 18.1875 20.910156 18.285156 C 20.910156 18.285156 23.476562 19.824219 21.054688 21.8125 C 20.910156 21.925781 20.71875 21.910156 20.605469 21.765625 C 20.492188 21.636719 20.507812 21.429688 20.652344 21.316406 C 22.371094 19.90625 20.574219 18.832031 20.574219 18.832031 Z M 20.574219 18.832031 " fill-opacity="1" fill-rule="nonzero"/><path fill="#5170ff" d="M 15.664062 20.195312 C 15.503906 20.128906 15.410156 19.953125 15.472656 19.792969 C 15.539062 19.617188 15.730469 19.535156 15.890625 19.601562 C 15.890625 19.601562 17.605469 20.289062 20.558594 18.300781 C 20.703125 18.1875 20.910156 18.238281 21.007812 18.382812 C 21.101562 18.527344 21.070312 18.71875 20.925781 18.832031 C 17.6875 21.011719 15.664062 20.195312 15.664062 20.195312 Z M 15.664062 20.195312 " fill-opacity="1" fill-rule="nonzero"/><g clip-path="url(#7ca017765a)"><path fill="#5170ff" d="M 25.480469 25.195312 C 25.351562 25.324219 25.144531 25.324219 25.015625 25.195312 C 24.902344 25.085938 24.886719 24.875 25.015625 24.75 C 25.238281 24.523438 25.464844 24.234375 25.640625 23.898438 C 25.785156 23.625 25.898438 23.335938 25.960938 23 C 25.992188 22.824219 26.152344 22.710938 26.332031 22.742188 C 26.425781 22.757812 26.507812 22.808594 26.539062 22.886719 C 26.730469 23.160156 29.152344 26.753906 25.640625 28.164062 C 25.480469 28.226562 25.289062 28.148438 25.222656 27.972656 C 25.160156 27.8125 25.238281 27.636719 25.402344 27.554688 C 27.5 26.722656 26.875 24.828125 26.378906 23.851562 C 26.332031 23.976562 26.265625 24.089844 26.203125 24.203125 C 25.992188 24.605469 25.738281 24.925781 25.480469 25.195312 Z M 25.480469 25.195312 " fill-opacity="1" fill-rule="nonzero"/></g><path fill="#5170ff" d="M 13.164062 15.316406 C 13.148438 15.140625 13.277344 14.980469 13.453125 14.964844 C 13.628906 14.964844 13.789062 15.09375 13.804688 15.269531 C 13.820312 15.558594 13.820312 15.976562 13.675781 16.441406 C 13.53125 16.890625 13.226562 17.386719 12.683594 17.835938 C 12.539062 17.949219 12.347656 17.933594 12.234375 17.789062 C 12.121094 17.644531 12.136719 17.449219 12.28125 17.339844 C 12.714844 16.984375 12.957031 16.585938 13.066406 16.230469 C 13.179688 15.878906 13.179688 15.558594 13.164062 15.316406 Z M 13.164062 15.316406 " fill-opacity="1" fill-rule="nonzero"/><path fill="#5170ff" d="M 16.804688 14.019531 C 17.011719 14.019531 17.222656 14.097656 17.367188 14.242188 C 17.511719 14.386719 17.589844 14.597656 17.589844 14.820312 C 17.589844 15.03125 17.511719 15.238281 17.367188 15.382812 C 17.222656 15.527344 17.011719 15.605469 16.804688 15.605469 C 16.578125 15.605469 16.386719 15.527344 16.242188 15.382812 L 16.226562 15.382812 C 16.082031 15.238281 16.003906 15.03125 16.003906 14.820312 C 16.003906 14.597656 16.082031 14.386719 16.226562 14.242188 C 16.242188 14.242188 16.242188 14.226562 16.257812 14.226562 C 16.402344 14.097656 16.597656 14.019531 16.804688 14.019531 Z M 16.917969 14.707031 C 16.882812 14.675781 16.835938 14.660156 16.804688 14.660156 C 16.757812 14.660156 16.722656 14.675781 16.691406 14.691406 L 16.691406 14.707031 C 16.660156 14.726562 16.644531 14.773438 16.644531 14.820312 C 16.644531 14.851562 16.660156 14.902344 16.691406 14.917969 L 16.691406 14.933594 C 16.707031 14.949219 16.757812 14.964844 16.804688 14.964844 C 16.835938 14.964844 16.882812 14.949219 16.917969 14.917969 C 16.933594 14.902344 16.949219 14.851562 16.949219 14.820312 C 16.949219 14.773438 16.933594 14.726562 16.917969 14.707031 Z M 16.917969 14.707031 " fill-opacity="1" fill-rule="nonzero"/><path fill="#5170ff" d="M 18.792969 12.253906 L 18.585938 15.285156 C 18.601562 15.511719 18.824219 17.386719 20.863281 16.472656 C 21.277344 16.296875 21.632812 16.007812 21.855469 15.6875 C 22.03125 15.460938 22.144531 15.207031 22.191406 14.933594 C 22.226562 14.691406 22.207031 14.453125 22.097656 14.210938 C 22.015625 14.003906 21.855469 13.808594 21.632812 13.648438 L 21.566406 13.601562 C 20.894531 13.121094 19.59375 12.160156 18.953125 12.125 C 18.855469 12.109375 18.808594 12.160156 18.792969 12.253906 Z M 17.941406 15.269531 L 18.152344 12.222656 C 18.199219 11.644531 18.519531 11.453125 19 11.484375 C 19.820312 11.53125 21.214844 12.558594 21.9375 13.089844 L 22 13.136719 C 22.320312 13.378906 22.546875 13.648438 22.691406 13.953125 C 22.835938 14.308594 22.882812 14.675781 22.816406 15.046875 C 22.753906 15.398438 22.609375 15.75 22.371094 16.070312 C 22.082031 16.472656 21.648438 16.824219 21.132812 17.066406 C 18.230469 18.347656 17.957031 15.511719 17.941406 15.316406 C 17.941406 15.300781 17.941406 15.285156 17.941406 15.269531 Z M 17.941406 15.269531 " fill-opacity="1" fill-rule="nonzero"/><g clip-path="url(#d1c7c6d200)"><path fill="#5170ff" d="M 1.085938 6.304688 L 5.996094 1.078125 C 6.15625 0.917969 6.378906 0.820312 6.589844 0.804688 C 6.8125 0.804688 7.039062 0.882812 7.214844 1.042969 L 9.667969 3.335938 C 9.84375 3.515625 9.925781 3.722656 9.941406 3.949219 C 9.941406 4.171875 9.859375 4.394531 9.699219 4.558594 L 4.792969 9.800781 C 4.632812 9.960938 4.40625 10.058594 4.183594 10.058594 C 3.972656 10.074219 3.75 9.992188 3.574219 9.832031 L 1.121094 7.539062 C 0.941406 7.363281 0.863281 7.15625 0.847656 6.929688 C 0.847656 6.707031 0.925781 6.480469 1.085938 6.304688 Z M 1.085938 6.304688 " fill-opacity="1" fill-rule="nonzero"/></g><path fill="#5170ff" d="M 6.699219 8.695312 C 6.988281 9.207031 7.550781 9.960938 8.433594 10.410156 C 9.089844 10.761719 9.957031 10.921875 11.046875 10.699219 C 12.457031 10.394531 13.644531 9.929688 14.558594 9.480469 C 15.488281 9.03125 16.128906 8.582031 16.484375 8.339844 C 16.851562 8.070312 17.027344 7.84375 17.0625 7.652344 C 17.078125 7.554688 17.0625 7.476562 16.996094 7.394531 C 16.933594 7.300781 16.820312 7.203125 16.675781 7.140625 C 16.273438 6.929688 15.714844 6.867188 15.234375 7.011719 L 15.214844 7.011719 L 12.84375 7.699219 C 12.683594 7.75 12.507812 7.652344 12.441406 7.476562 C 12.394531 7.300781 12.507812 7.121094 12.667969 7.074219 L 15.039062 6.402344 L 15.054688 6.386719 C 15.679688 6.207031 16.453125 6.289062 16.964844 6.5625 C 17.207031 6.691406 17.398438 6.851562 17.527344 7.042969 C 17.671875 7.25 17.734375 7.492188 17.6875 7.765625 C 17.621094 8.117188 17.382812 8.484375 16.867188 8.855469 C 16.5 9.128906 15.808594 9.578125 14.847656 10.058594 C 13.886719 10.523438 12.652344 11.003906 11.191406 11.324219 C 9.925781 11.597656 8.914062 11.390625 8.144531 10.988281 C 7.214844 10.507812 6.605469 9.753906 6.25 9.175781 Z M 6.699219 8.695312 " fill-opacity="1" fill-rule="nonzero"/><path fill="#5170ff" d="M 9.925781 5.261719 L 16.097656 4.171875 C 16.722656 4.058594 19.820312 6.046875 21.472656 7.105469 C 21.855469 7.347656 22.160156 7.539062 22.351562 7.652344 C 22.769531 7.910156 23.011719 8.246094 23.089844 8.566406 C 23.125 8.773438 23.105469 8.96875 23.027344 9.144531 C 22.945312 9.320312 22.800781 9.480469 22.609375 9.578125 C 22.242188 9.785156 21.679688 9.863281 20.910156 9.671875 C 20.378906 9.527344 19.789062 9.351562 19.195312 9.160156 C 18.425781 8.917969 17.671875 8.644531 17.0625 8.4375 C 16.902344 8.375 16.820312 8.179688 16.882812 8.019531 C 16.933594 7.859375 17.125 7.765625 17.285156 7.828125 C 17.910156 8.054688 18.648438 8.308594 19.386719 8.550781 C 19.964844 8.742188 20.539062 8.902344 21.070312 9.046875 C 21.664062 9.191406 22.066406 9.160156 22.289062 9.03125 C 22.371094 8.984375 22.417969 8.933594 22.449219 8.871094 C 22.464844 8.824219 22.480469 8.773438 22.464844 8.710938 C 22.417969 8.550781 22.273438 8.359375 22.015625 8.214844 C 21.871094 8.117188 21.550781 7.910156 21.132812 7.636719 C 19.546875 6.625 16.597656 4.734375 16.210938 4.8125 L 9.554688 5.984375 C 9.460938 6 9.378906 5.96875 9.316406 5.921875 Z M 9.925781 5.261719 " fill-opacity="1" fill-rule="nonzero"/><path fill="#5170ff" d="M 20.621094 9.335938 C 20.621094 9.160156 20.765625 9.015625 20.941406 9.015625 C 21.117188 9.015625 21.261719 9.160156 21.246094 9.335938 C 21.246094 9.464844 21.246094 9.578125 21.214844 9.703125 C 21.167969 9.960938 21.054688 10.21875 20.847656 10.425781 C 20.828125 10.441406 20.828125 10.441406 20.828125 10.441406 C 20.605469 10.636719 20.300781 10.761719 19.867188 10.761719 C 19.722656 10.761719 19.578125 10.746094 19.402344 10.714844 C 18.808594 10.601562 18.167969 10.363281 17.558594 10.089844 C 16.949219 9.816406 16.386719 9.511719 15.953125 9.253906 C 15.792969 9.160156 15.746094 8.96875 15.84375 8.824219 C 15.921875 8.664062 16.113281 8.613281 16.273438 8.695312 C 16.707031 8.949219 17.253906 9.238281 17.816406 9.511719 C 18.390625 9.753906 18.984375 9.976562 19.515625 10.089844 C 19.660156 10.105469 19.769531 10.121094 19.882812 10.121094 C 20.125 10.121094 20.285156 10.074219 20.398438 9.976562 L 20.414062 9.960938 C 20.507812 9.863281 20.558594 9.722656 20.589844 9.578125 C 20.605469 9.496094 20.621094 9.417969 20.621094 9.335938 Z M 20.621094 9.335938 " fill-opacity="1" fill-rule="nonzero"/><path fill="#5170ff" d="M 23.492188 2.390625 C 23.589844 2.421875 23.699219 2.472656 23.796875 2.519531 C 23.894531 2.472656 24.003906 2.421875 24.101562 2.390625 C 24.277344 2.359375 24.4375 2.328125 24.613281 2.328125 C 25.160156 2.328125 25.640625 2.550781 25.992188 2.90625 C 26.347656 3.257812 26.570312 3.753906 26.570312 4.285156 C 26.570312 4.574219 26.507812 4.84375 26.394531 5.085938 C 26.28125 5.34375 26.121094 5.566406 25.914062 5.742188 L 24.019531 7.445312 C 23.894531 7.554688 23.714844 7.554688 23.589844 7.445312 L 21.679688 5.742188 C 21.472656 5.566406 21.3125 5.34375 21.199219 5.085938 C 21.085938 4.84375 21.023438 4.574219 21.023438 4.285156 C 21.023438 3.753906 21.246094 3.257812 21.597656 2.90625 C 21.953125 2.550781 22.449219 2.328125 22.980469 2.328125 C 23.15625 2.328125 23.332031 2.359375 23.492188 2.390625 Z M 23.492188 2.390625 " fill-opacity="1" fill-rule="nonzero"/></svg>